<?xml version="1.0" standalone="no"?>
<!DOCTYPE svg PUBLIC "-//W3C//DTD SVG 20010904//EN"
 "http://www.w3.org/TR/2001/REC-SVG-20010904/DTD/svg10.dtd">
<svg version="1.0" xmlns="http://www.w3.org/2000/svg"
 width="518.000000pt" height="518.000000pt" viewBox="0 0 518.000000 518.000000"
 preserveAspectRatio="xMidYMid meet">
<metadata>
Created by potrace 1.11, written by Peter Selinger 2001-2013
</metadata>
<g transform="translate(0.000000,518.000000) scale(0.100000,-0.100000)"
fill="#000000" stroke="none">
<path d="M3413 4346 c-48 -24 -96 -83 -89 -109 2 -9 0 -15 -5 -11 -11 6 -11 6
-13 -221 -1 -126 3 -186 12 -203 6 -13 12 -30 12 -36 0 -33 101 -96 153 -96
13 0 29 -6 36 -12 9 -8 11 -9 7 -1 -4 7 6 11 29 11 23 0 33 -4 29 -11 -4 -8
-2 -7 7 1 16 14 33 16 24 2 -3 -5 -2 -10 4 -10 5 0 11 6 14 13 3 9 8 8 22 -3
11 -9 16 -10 11 -2 -4 6 -2 12 3 12 6 0 11 -6 11 -12 0 -9 3 -9 9 1 8 13 12
13 27 0 10 -8 15 -9 11 -3 -9 15 53 16 72 1 12 -10 13 -9 6 2 -6 11 -1 13 23
9 17 -2 29 -1 26 4 -3 4 2 8 10 8 31 0 85 36 107 72 13 20 26 35 29 33 4 -2 6
12 5 31 -1 19 2 37 7 40 5 3 5 11 -1 17 -15 19 -14 28 6 43 11 9 13 13 4 12
-10 -2 -14 10 -15 49 -1 28 3 49 8 46 5 -4 5 0 0 8 -15 25 -11 142 6 164 14
18 14 19 -2 7 -14 -11 -17 -8 -23 27 -8 51 -68 113 -124 130 -27 8 -104 11
-229 10 -170 -1 -192 -3 -229 -23z"/>
<path d="M4572 4162 c-12 -2 -20 -7 -17 -11 2 -5 -7 -6 -22 -3 -19 4 -24 2
-18 -8 5 -9 4 -11 -4 -6 -15 9 -53 -3 -46 -15 3 -5 0 -6 -8 -3 -14 5 -103 -60
-144 -105 -29 -33 -91 -156 -98 -196 -15 -85 -2 -216 28 -270 6 -11 12 -22 13
-25 1 -3 5 -15 9 -27 4 -13 11 -23 16 -23 5 0 9 -5 9 -10 0 -31 159 -157 207
-165 10 -1 17 -7 16 -12 -1 -5 13 -9 30 -9 21 1 31 -4 30 -11 -2 -7 2 -13 7
-13 6 0 10 6 10 14 0 9 8 12 25 8 14 -2 22 -8 19 -13 -3 -5 0 -9 5 -9 6 0 11
5 11 10 0 6 12 10 26 10 14 0 23 -4 19 -10 -3 -5 -2 -10 3 -10 6 0 13 8 17 18
6 16 8 16 22 -3 13 -17 15 -17 10 -2 -4 11 -2 17 6 16 6 -1 20 1 30 6 10 4 24
2 35 -6 14 -11 15 -11 5 1 -11 11 -3 19 45 43 57 29 201 166 175 167 -4 0 0 7
10 14 10 8 18 17 18 20 -3 21 1 26 12 20 8 -5 8 -2 -2 9 -12 15 -9 20 9 19 3
0 5 12 6 26 2 49 12 110 19 123 5 7 4 10 -2 6 -7 -5 -10 9 -9 38 1 25 -2 45
-7 45 -5 0 -7 13 -5 30 3 16 2 28 0 25 -3 -3 -18 21 -33 53 -24 49 -121 162
-140 162 -3 0 -16 9 -29 20 -12 11 -27 17 -31 14 -5 -3 -9 -1 -9 4 0 12 -115
46 -134 39 -8 -3 -18 -2 -21 4 -6 9 -70 9 -123 1z"/>
<path d="M3926 3682 c-3 -5 1 -9 9 -9 8 0 12 4 9 9 -3 4 -7 8 -9 8 -2 0 -6 -4
-9 -8z"/>
<path d="M3773 3635 c0 -8 4 -12 9 -9 5 3 6 10 3 15 -9 13 -12 11 -12 -6z"/>
<path d="M5116 3627 c3 -10 9 -15 12 -12 3 3 0 11 -7 18 -10 9 -11 8 -5 -6z"/>
<path d="M3557 3553 c-16 -8 -25 -19 -21 -25 4 -6 3 -8 -4 -4 -6 3 -14 1 -18
-5 -11 -18 -6 -170 7 -200 9 -24 39 -45 63 -47 5 0 13 -6 17 -14 7 -11 9 -11
9 1 0 11 3 11 15 1 12 -10 15 -10 15 0 0 10 3 10 15 0 12 -10 15 -10 15 0 0
10 3 10 15 0 12 -10 15 -10 15 0 0 10 3 10 15 0 10 -9 15 -9 15 -1 0 6 9 11
20 11 11 0 23 7 27 16 3 8 11 13 18 10 10 -3 13 20 11 104 -1 115 -6 129 -62
157 -29 15 -156 13 -187 -4z"/>
<path d="M5054 3425 c0 -13 3 -22 7 -19 8 4 6 30 -2 38 -3 3 -5 -5 -5 -19z"/>
<path d="M3830 3420 c0 -5 5 -10 11 -10 5 0 7 5 4 10 -3 6 -8 10 -11 10 -2 0
-4 -4 -4 -10z"/>
<path d="M4973 3365 c0 -8 4 -12 9 -9 5 3 6 10 3 15 -9 13 -12 11 -12 -6z"/>
<path d="M3830 3359 c0 -5 5 -7 10 -4 6 3 10 8 10 11 0 2 -4 4 -10 4 -5 0 -10
-5 -10 -11z"/>
<path d="M4910 3320 c0 -5 5 -10 11 -10 5 0 7 5 4 10 -3 6 -8 10 -11 10 -2 0
-4 -4 -4 -10z"/>
<path d="M1007 3164 c-3 -3 -21 -7 -39 -9 -49 -4 -70 -15 -63 -34 5 -12 3 -13
-5 -4 -14 13 -34 -4 -65 -58 -18 -31 -20 -55 -22 -241 -2 -131 1 -208 7 -208
6 0 9 -3 9 -7 -4 -25 2 -43 13 -37 7 5 8 3 3 -5 -15 -25 84 -100 124 -92 8 1
10 -2 6 -9 -6 -9 -2 -9 12 -2 11 6 25 7 33 2 8 -5 21 -5 29 -1 19 8 69 7 77
-2 4 -4 15 -2 25 4 18 9 24 2 20 -24 -1 -5 3 -6 9 -2 6 3 7 11 4 17 -5 7 0 9
14 6 12 -4 22 -2 22 3 0 5 10 5 24 -1 15 -5 27 -5 35 3 8 8 11 8 11 -2 0 -7 4
-10 9 -7 5 3 26 8 47 12 22 3 44 10 50 15 6 5 14 6 17 2 4 -3 7 0 7 7 0 7 3
11 6 7 8 -7 52 39 69 73 7 15 13 68 14 130 2 63 7 110 14 119 9 12 9 13 0 7
-10 -5 -13 2 -13 28 0 19 6 37 13 39 10 4 10 6 0 6 -9 1 -13 19 -13 55 0 71
-36 156 -67 156 -4 0 -14 9 -20 19 -8 12 -29 22 -57 26 -62 10 -180 10 -194 1
-7 -4 -12 -4 -12 1 0 12 -114 10 -122 -2 -5 -6 -8 -5 -8 3 0 13 -12 16 -23 6z"/>
<path d="M3441 3162 c-9 -3 -9 -8 1 -20 11 -15 11 -15 -3 -4 -13 10 -22 10
-40 1 -25 -11 -69 -61 -73 -82 -2 -6 -7 -21 -11 -32 -15 -34 -11 -411 4 -429
8 -9 10 -16 7 -16 -15 0 36 -60 64 -77 16 -9 27 -20 25 -23 -2 -4 4 -6 13 -6
62 0 83 -5 76 -16 -6 -10 -4 -10 7 0 15 14 33 17 25 4 -3 -5 1 -9 9 -9 8 0 12
4 10 7 -3 4 6 8 20 8 14 0 22 -5 18 -11 -4 -6 -1 -7 8 -1 19 12 89 14 89 3 0
-5 5 -9 11 -9 5 0 8 4 5 9 -3 5 5 9 19 9 14 0 23 -4 20 -8 -2 -3 2 -7 10 -7 8
0 12 4 9 9 -8 13 10 10 25 -4 11 -11 12 -10 6 1 -5 9 -3 12 6 9 15 -6 108 19
125 33 6 5 14 7 17 4 4 -3 5 -2 2 1 -2 4 7 21 20 38 14 17 29 36 33 41 4 6 7
44 7 87 0 43 4 74 9 70 5 -3 5 1 0 9 -13 21 -11 32 6 47 12 10 12 12 1 10 -10
-2 -14 10 -15 49 -1 32 3 49 9 45 6 -4 6 -1 0 9 -6 8 -10 40 -10 71 0 31 -3
54 -7 52 -5 -3 -9 0 -9 5 -1 6 -2 16 -3 22 -2 15 -77 89 -93 90 -21 2 -27 4
-38 10 -5 3 -57 6 -114 8 -75 1 -107 -2 -113 -11 -6 -10 -8 -10 -8 0 0 10 -20
12 -84 11 -45 -2 -88 -5 -95 -7z"/>
<path d="M4530 3158 c-25 -4 -52 -11 -60 -14 -8 -4 -21 -8 -29 -10 -8 -1 -18
-9 -22 -16 -5 -7 -9 -10 -9 -5 0 4 -14 0 -30 -8 -18 -9 -28 -21 -24 -27 4 -6
3 -8 -3 -5 -17 11 -98 -77 -87 -95 4 -6 3 -8 -3 -5 -10 6 -36 -50 -47 -103
-12 -55 -14 -140 -4 -134 7 5 8 2 3 -7 -12 -19 -13 -159 -1 -152 5 4 6 1 1 -8
-13 -20 -13 -159 0 -151 7 4 7 1 0 -9 -12 -16 -13 -268 -2 -286 4 -6 3 -14 -3
-18 -7 -4 -7 -12 0 -24 5 -10 6 -21 3 -25 -11 -11 -9 -445 1 -439 5 4 5 0 1
-8 -12 -19 -13 -159 -1 -152 5 4 6 1 1 -8 -12 -19 -13 -159 -1 -152 5 4 6 1 1
-8 -13 -20 -13 -159 0 -151 7 4 7 1 0 -9 -12 -16 -13 -147 -1 -196 8 -34 43
-63 76 -63 11 0 20 -6 20 -12 0 -9 3 -9 8 -3 4 6 16 11 27 11 11 0 23 -5 27
-11 5 -7 8 -7 8 1 0 5 10 11 23 11 46 3 64 7 76 20 6 7 8 13 4 13 -4 0 -1 5 7
10 9 5 15 25 16 49 0 22 7 48 15 58 12 16 12 17 -1 6 -14 -10 -15 -5 -14 41 0
29 5 59 9 66 5 8 4 11 -1 7 -6 -3 -9 29 -8 78 2 89 18 128 57 141 34 11 57 12
50 1 -4 -6 -1 -7 8 -1 19 12 81 15 74 4 -3 -6 1 -7 10 -4 26 10 64 -5 82 -33
15 -23 18 -52 19 -183 0 -86 4 -162 9 -169 5 -9 4 -12 -2 -8 -6 4 -8 -3 -6
-17 5 -27 41 -70 63 -74 8 -2 18 -9 22 -15 6 -9 8 -9 8 1 0 9 5 10 18 3 13 -7
23 -6 31 2 9 9 14 8 21 -3 8 -13 10 -13 10 -1 0 11 3 12 11 4 12 -12 67 13 99
43 13 13 15 138 16 999 0 638 -3 982 -10 978 -5 -4 -7 1 -3 10 3 10 3 17 -2
17 -5 0 -12 12 -16 28 -21 86 -170 201 -280 217 -22 3 -48 8 -58 11 -10 3 -25
0 -34 -8 -11 -8 -14 -9 -10 -1 9 14 -87 15 -163 1z"/>
<path d="M468 2956 c-21 -5 -38 -13 -38 -17 0 -5 -7 -5 -17 -2 -12 5 -14 3 -8
-7 5 -9 4 -11 -3 -6 -21 13 -122 -65 -122 -94 0 -6 -3 -10 -7 -10 -22 0 -70
-170 -49 -170 8 0 8 -3 0 -8 -14 -10 -17 -73 -4 -107 20 -53 36 -60 134 -60
50 0 98 2 106 5 23 8 46 51 53 99 9 68 43 89 159 94 9 1 15 3 13 5 -2 3 7 25
21 49 13 24 21 42 16 39 -9 -5 -8 85 1 100 9 15 -47 88 -73 95 -14 4 -49 7
-78 8 -40 1 -51 -2 -46 -11 6 -10 4 -10 -7 -2 -9 7 -26 7 -51 0z"/>
<path d="M1675 2960 c-4 -6 -10 -8 -14 -5 -10 6 -34 -22 -47 -55 -13 -33 -10
-142 5 -178 14 -35 40 -49 100 -55 52 -6 91 -42 91 -84 0 -39 31 -96 55 -101
59 -12 145 -17 148 -7 2 6 11 4 22 -5 10 -8 16 -10 12 -3 -7 11 27 30 45 25 4
-1 5 4 2 12 -3 8 -1 17 5 21 6 3 11 17 11 31 0 18 4 23 13 18 9 -6 9 -5 0 7
-6 8 -13 41 -16 74 -6 85 -31 146 -82 202 -16 18 -36 33 -42 33 -7 0 -13 4
-13 10 0 9 -49 39 -67 41 -5 1 -19 6 -33 11 -35 14 -188 20 -195 8z"/>
<path d="M2537 2964 c-1 -1 -21 -4 -44 -8 -57 -7 -144 -46 -136 -59 3 -6 1 -7
-6 -3 -19 12 -94 -76 -115 -134 -25 -70 -32 -120 -27 -213 1 -32 44 -77 73
-77 13 0 17 -4 12 -12 -5 -8 -1 -8 10 1 15 13 19 13 27 0 6 -10 9 -10 9 -1 0
6 5 12 11 12 5 0 7 -6 3 -12 -6 -10 -4 -10 7 0 15 14 43 17 34 3 -3 -5 0 -13
6 -17 8 -4 9 -3 5 5 -4 6 0 14 11 17 54 18 73 31 78 52 3 14 10 20 18 16 9 -5
9 -4 1 5 -13 14 -3 73 16 96 13 15 74 39 65 25 -3 -5 0 -12 6 -16 8 -4 9 -3 5
5 -11 17 24 26 46 12 11 -7 17 -8 14 -3 -4 6 16 10 50 10 33 -1 50 -4 42 -9
-9 -6 -9 -9 -1 -9 6 0 14 4 17 8 3 5 19 9 36 10 26 1 30 -3 26 -16 -6 -16 -5
-16 7 0 14 17 32 19 56 4 9 -6 12 -5 8 1 -5 7 12 11 49 11 33 -1 50 -4 42 -9
-9 -6 -9 -9 -1 -9 6 0 14 4 17 9 8 12 58 11 75 -3 12 -8 13 -8 7 2 -5 9 -3 12
5 11 26 -6 68 11 79 31 6 11 14 18 19 16 13 -8 7 177 -7 201 -7 13 -22 28 -35
35 -29 17 -179 20 -189 5 -5 -8 -8 -8 -8 -1 0 15 -90 15 -90 0 0 -6 -5 -4 -10
4 -8 13 -13 13 -31 2 -11 -8 -18 -9 -14 -3 3 6 -1 11 -9 11 -9 0 -16 -6 -16
-12 0 -9 -4 -8 -10 2 -8 13 -13 13 -31 2 -11 -8 -18 -9 -14 -3 3 6 -1 11 -9
11 -9 0 -16 -6 -16 -12 0 -9 -4 -8 -10 2 -8 13 -13 13 -31 2 -11 -8 -18 -9
-15 -4 4 6 -17 10 -55 9 -33 -1 -61 -3 -62 -3z"/>
<path d="M735 2849 c-4 -6 -5 -12 -2 -15 2 -3 7 2 10 11 7 17 1 20 -8 4z"/>
<path d="M3975 2520 c3 -5 8 -10 11 -10 2 0 4 5 4 10 0 6 -5 10 -11 10 -5 0
-7 -4 -4 -10z"/>
<path d="M493 2483 c4 -3 1 -13 -6 -22 -11 -14 -10 -14 5 -2 16 12 16 31 1 31
-4 0 -3 -3 0 -7z"/>
<path d="M1070 2446 c0 -2 7 -7 16 -10 8 -3 12 -2 9 4 -6 10 -25 14 -25 6z"/>
<path d="M1335 2439 c-3 -4 2 -6 10 -5 21 3 28 13 10 13 -9 0 -18 -4 -20 -8z"/>
<path d="M3630 2440 c0 -5 5 -10 11 -10 5 0 7 5 4 10 -3 6 -8 10 -11 10 -2 0
-4 -4 -4 -10z"/>
<path d="M3853 2435 c0 -8 4 -12 9 -9 5 3 6 10 3 15 -9 13 -12 11 -12 -6z"/>
<path d="M195 2359 c-78 -7 -129 -39 -158 -99 -20 -41 -22 -62 -24 -247 -1
-132 2 -203 8 -203 6 0 7 -5 4 -10 -9 -14 31 -76 64 -99 36 -26 110 -51 116
-40 3 4 16 4 29 -1 13 -5 26 -6 29 -3 5 4 38 5 177 3 8 -1 34 1 57 2 25 2 39
-1 35 -7 -3 -5 1 -4 9 2 9 7 30 14 47 16 18 2 35 7 40 12 4 5 1 5 -7 0 -9 -5
-12 -4 -7 3 4 7 11 12 17 12 13 0 49 38 49 51 0 6 6 9 13 6 10 -4 12 3 9 25
-3 17 -1 28 4 25 5 -3 7 22 6 55 -3 43 0 63 10 69 10 6 10 9 1 9 -10 0 -13 26
-13 96 0 52 4 93 8 90 5 -3 9 1 9 9 0 8 -4 12 -9 9 -4 -3 -8 7 -8 21 0 14 4
24 8 21 5 -3 9 1 9 8 0 8 -7 12 -15 8 -12 -4 -14 1 -10 21 3 15 1 24 -3 21 -5
-3 -9 1 -9 9 0 19 -54 72 -93 90 -34 16 -174 26 -193 14 -6 -3 -14 -4 -17 0
-8 8 -102 7 -115 -1 -6 -3 -12 -3 -14 1 -1 5 -30 5 -63 2z"/>
<path d="M1960 2363 c-8 -3 -22 -7 -30 -10 -8 -4 -18 -7 -22 -7 -18 -2 -78
-69 -83 -94 -3 -9 -8 -33 -13 -52 -5 -20 -5 -46 -1 -58 5 -13 5 -21 1 -18 -7
4 -7 -261 1 -304 15 -79 91 -150 161 -150 14 0 28 -4 31 -10 4 -6 13 -5 26 3
16 10 21 9 29 -3 5 -8 10 -10 10 -5 0 6 11 12 26 13 17 1 23 -2 18 -11 -5 -9
-4 -9 6 0 11 10 18 9 34 -5 20 -16 20 -16 7 1 -11 14 -11 17 2 17 9 0 19 -5
22 -10 5 -8 11 -7 20 0 17 14 38 4 28 -13 -4 -7 1 -5 11 3 10 8 34 15 55 16
76 4 140 32 164 71 5 7 12 11 16 9 4 -3 8 5 8 16 1 12 6 24 10 27 4 3 8 53 8
111 0 58 4 113 8 124 6 12 5 16 -2 12 -11 -7 -8 45 4 64 3 5 2 10 -3 10 -5 0
-7 16 -5 36 2 20 -1 53 -8 73 -14 46 -58 111 -74 111 -7 0 -18 6 -24 14 -7 8
-23 13 -36 11 -14 -1 -25 1 -25 5 0 4 -27 7 -60 8 -43 0 -58 -3 -53 -11 5 -8
2 -8 -8 0 -18 14 -61 13 -71 -2 -5 -7 -8 -7 -8 1 0 7 -27 11 -75 11 -53 0 -73
-3 -68 -11 5 -8 3 -8 -8 0 -8 6 -21 9 -29 7z"/>
<path d="M3594 2362 c2 -4 -7 -8 -21 -7 -16 0 -33 -10 -46 -28 -20 -26 -21
-40 -22 -290 0 -144 2 -274 4 -289 4 -32 46 -78 72 -78 9 0 20 -6 22 -12 4
-10 6 -9 6 1 1 11 4 11 18 0 11 -10 14 -10 9 -1 -4 7 -1 12 8 12 9 0 16 -6 16
-12 0 -8 3 -9 8 -3 11 16 34 17 43 3 7 -10 9 -10 9 0 0 6 6 12 14 12 8 0 28
11 43 24 l28 24 1 284 c2 298 -2 324 -45 347 -29 16 -79 22 -86 11 -4 -6 -13
-5 -26 3 -16 10 -21 9 -29 -3 -6 -10 -10 -11 -10 -2 0 6 -5 12 -11 12 -5 0 -8
-4 -5 -8z"/>
<path d="M870 2161 c0 -5 -9 -11 -20 -14 -28 -7 -42 -51 -42 -133 0 -116 29
-149 130 -149 23 0 42 -4 42 -10 0 -6 3 -6 8 0 9 13 82 15 82 3 0 -5 6 -6 13
-1 19 12 45 14 52 3 4 -6 12 -7 18 -3 18 11 67 10 67 -2 0 -7 3 -7 8 0 4 6 21
11 37 11 17 0 33 -5 37 -11 5 -7 8 -7 8 1 0 6 18 10 40 10 22 0 40 -4 40 -9 0
-4 6 -5 13 0 19 12 45 14 52 3 4 -6 12 -7 18 -3 17 11 61 10 69 -2 5 -6 8 -6
8 1 0 6 15 10 35 9 81 -4 124 43 121 134 -1 31 3 50 14 59 13 10 12 11 -4 5
-13 -4 -17 -3 -12 5 10 16 -20 69 -47 84 -32 17 -77 20 -77 5 0 -8 -3 -8 -8
-2 -10 15 -112 16 -112 2 0 -8 -3 -8 -8 -2 -10 14 -384 15 -394 1 -5 -8 -8 -8
-8 -1 0 15 -110 16 -110 1 0 -7 -3 -7 -8 -1 -9 12 -62 17 -62 6z"/>
<path d="M1646 1862 c-3 -5 1 -9 9 -9 8 0 12 4 9 9 -3 4 -7 8 -9 8 -2 0 -6 -4
-9 -8z"/>
<path d="M1035 1849 c-4 -6 -5 -12 -2 -15 2 -3 7 2 10 11 7 17 1 20 -8 4z"/>
<path d="M1355 1849 c-4 -6 -5 -12 -2 -15 2 -3 7 2 10 11 7 17 1 20 -8 4z"/>
<path d="M1585 1840 c-3 -6 1 -7 9 -4 18 7 21 14 7 14 -6 0 -13 -4 -16 -10z"/>
<path d="M2486 1718 c3 -5 10 -6 15 -3 13 9 11 12 -6 12 -8 0 -12 -4 -9 -9z"/>
<path d="M2454 1696 c1 -8 5 -18 8 -22 4 -3 5 1 4 10 -1 8 -5 18 -8 22 -4 3
-5 -1 -4 -10z"/>
<path d="M215 1640 c-3 -5 -1 -10 4 -10 6 0 11 5 11 10 0 6 -2 10 -4 10 -3 0
-8 -4 -11 -10z"/>
<path d="M295 1640 c-3 -5 -1 -10 4 -10 6 0 11 5 11 10 0 6 -2 10 -4 10 -3 0
-8 -4 -11 -10z"/>
<path d="M365 1640 c-3 -6 1 -7 9 -4 18 7 21 14 7 14 -6 0 -13 -4 -16 -10z"/>
<path d="M485 1640 c-3 -6 1 -7 9 -4 18 7 21 14 7 14 -6 0 -13 -4 -16 -10z"/>
<path d="M2295 1641 c-3 -5 -2 -12 3 -15 5 -3 9 1 9 9 0 17 -3 19 -12 6z"/>
<path d="M2335 1641 c-3 -5 -2 -12 3 -15 5 -3 9 1 9 9 0 17 -3 19 -12 6z"/>
<path d="M2407 1573 c-4 -3 -32 -5 -62 -4 -55 2 -130 -23 -119 -40 3 -5 0 -9
-7 -9 -6 0 -9 -8 -6 -20 3 -11 2 -20 -1 -20 -4 0 -7 -11 -7 -25 0 -14 2 -25 5
-25 3 0 4 -17 4 -37 -1 -44 21 -125 44 -162 26 -41 85 -101 99 -101 7 0 13 -5
13 -11 0 -5 5 -7 10 -4 6 3 10 1 10 -4 0 -6 9 -11 20 -11 11 0 20 -3 20 -7 0
-5 10 -9 23 -10 12 -1 38 -4 57 -7 19 -2 123 -5 230 -7 160 -2 199 -5 215 -18
19 -15 19 -15 5 2 -12 17 -12 18 6 15 10 -1 25 -12 32 -23 13 -20 13 -20 7 1
-5 18 -1 22 22 22 16 0 37 -8 47 -17 11 -9 16 -11 13 -4 -14 22 12 23 27 1 9
-12 16 -18 16 -12 0 5 -6 16 -12 23 -11 11 -9 13 10 8 12 -3 22 -1 22 3 0 5 9
12 20 15 11 3 20 13 20 21 0 8 4 13 9 10 5 -4 7 4 3 16 -4 16 -2 19 9 13 11
-7 12 -6 4 6 -11 15 -12 95 -2 105 12 13 -34 85 -61 96 -41 16 -242 21 -242 5
0 -8 -4 -7 -10 3 -8 13 -13 13 -31 2 -12 -8 -18 -9 -14 -2 5 7 -29 10 -117 9
-68 -1 -137 1 -154 5 -51 12 -72 44 -77 124 0 6 -4 12 -9 12 -4 0 -8 7 -8 16
0 8 -4 12 -10 9 -5 -3 -10 1 -10 9 0 14 -11 18 -36 15 -4 0 -10 4 -14 10 -3 6
-10 8 -13 4z"/>
<path d="M250 1553 c-14 -9 -26 -17 -28 -18 -5 -4 -14 -50 -14 -80 -2 -54 12
-139 27 -169 8 -16 15 -34 15 -40 0 -21 83 -107 124 -129 45 -23 47 -24 77
-26 11 0 18 -4 16 -8 -3 -5 9 -8 26 -8 18 0 38 -6 45 -15 8 -8 11 -10 8 -3 -4
6 -2 14 4 18 5 3 10 3 10 -2 0 -4 65 -8 145 -7 79 0 142 -2 140 -6 -2 -4 2 -7
10 -7 8 0 12 4 9 9 -3 4 4 8 16 8 12 0 19 -4 16 -8 -3 -5 1 -9 9 -9 8 0 12 4
9 9 -3 4 5 6 18 4 13 -2 22 -9 20 -16 -1 -6 2 -9 8 -5 6 3 8 10 6 14 -3 4 1 8
9 8 8 0 15 -4 15 -9 0 -5 9 -4 19 2 11 5 29 10 41 10 12 0 19 4 16 9 -3 5 1
12 10 15 22 8 26 8 19 -3 -3 -5 -1 -12 4 -15 10 -7 9 20 -2 30 -3 4 -2 14 3
24 5 10 6 20 2 24 -3 4 0 11 8 16 12 8 12 10 1 10 -11 0 -11 3 -1 15 7 8 8 15
3 15 -6 0 -8 16 -6 35 4 39 -9 70 -40 98 -11 9 -20 17 -21 18 -1 0 -104 3
-229 6 -222 4 -285 12 -272 33 4 6 3 9 -2 8 -4 -2 -9 1 -10 6 -1 5 -6 12 -12
16 -6 3 -13 23 -14 43 -4 41 -43 91 -65 82 -7 -2 -10 0 -7 5 4 6 -25 10 -77
10 -61 0 -90 -4 -108 -17z"/>
<path d="M1395 1560 c-4 -6 -11 -8 -16 -4 -28 17 -138 -44 -122 -68 3 -7 1 -8
-6 -4 -6 4 -13 0 -16 -8 -3 -9 -8 -24 -11 -33 -3 -10 -6 -20 -6 -23 0 -3 -4
-15 -8 -26 -5 -13 -4 -26 3 -33 6 -6 7 -11 1 -11 -12 0 -9 -327 4 -360 12 -29
67 -101 79 -102 4 0 19 -4 32 -9 13 -5 34 -10 47 -11 13 -1 24 -7 24 -13 0 -6
3 -7 8 0 9 13 53 15 45 2 -4 -6 -1 -7 8 -1 21 13 39 14 39 1 0 -8 3 -8 8 -2
11 15 32 17 32 3 0 -10 3 -9 9 1 6 9 10 10 16 2 5 -9 10 -9 21 0 11 9 17 9 28
0 11 -9 16 -9 21 0 6 8 10 7 16 -2 7 -12 9 -12 9 0 0 11 3 11 15 1 12 -10 15
-10 15 1 0 11 2 11 10 -1 8 -12 10 -12 10 -1 0 11 3 11 17 0 9 -8 14 -9 10 -3
-4 8 9 16 36 23 23 5 54 21 68 35 15 14 30 22 34 18 4 -4 6 -2 5 3 -1 6 -2 16
-1 24 1 11 4 11 19 0 15 -12 16 -12 5 2 -14 17 -6 62 10 52 6 -4 7 -1 1 8 -15
24 -13 42 4 56 13 10 13 12 2 8 -13 -5 -15 18 -15 162 0 155 -2 171 -23 213
-27 52 -68 88 -109 94 -15 2 -35 6 -44 10 -19 8 -41 5 -51 -9 -5 -7 -8 -7 -8
0 0 6 -31 11 -70 11 -45 1 -67 -2 -63 -9 4 -6 1 -7 -8 -2 -19 13 -71 14 -93 3
-13 -7 -16 -7 -12 1 4 6 1 11 -8 11 -8 0 -18 -5 -21 -10z"/>
<path d="M3475 1560 c3 -4 -3 -6 -14 -3 -39 10 -139 -71 -127 -103 3 -8 2 -13
-3 -10 -18 12 -27 -75 -25 -254 2 -207 7 -227 76 -283 36 -29 68 -38 136 -40
17 -1 32 -6 32 -12 0 -7 3 -7 8 0 9 13 142 14 135 1 -4 -5 0 -6 8 0 21 13 39
14 39 1 0 -8 3 -7 9 1 11 17 21 17 32 0 7 -11 9 -11 9 1 0 11 3 11 17 0 11
-10 14 -10 9 -1 -5 8 2 12 23 12 17 0 33 -1 35 -2 2 -2 13 6 25 16 12 11 21
16 21 11 0 -4 9 4 21 19 11 14 26 23 32 19 7 -3 9 -3 6 1 -4 4 1 28 11 54 10
28 17 70 16 104 -1 32 2 54 8 51 5 -4 6 -1 0 8 -13 21 -11 32 6 47 12 10 12
12 1 10 -10 -2 -14 10 -15 49 -1 32 3 49 9 45 6 -3 6 0 -1 9 -6 8 -10 35 -9
62 0 26 -3 47 -8 47 -4 0 -6 4 -2 9 3 5 1 12 -5 16 -6 4 -8 10 -5 15 2 4 -15
26 -40 49 -44 40 -85 59 -104 46 -6 -3 -11 -2 -11 4 0 12 -91 11 -107 -2 -7
-5 -13 -5 -13 0 0 4 -18 9 -40 10 -29 1 -38 -2 -33 -10 5 -9 3 -9 -8 0 -18 14
-91 15 -82 0 4 -6 1 -7 -8 -1 -18 11 -71 15 -64 4z"/>
<path d="M4567 1339 c7 -7 15 -10 18 -7 3 3 -2 9 -12 12 -14 6 -15 5 -6 -5z"/>
<path d="M3216 1082 c-2 -4 -1 -14 4 -22 7 -11 9 -9 7 8 -1 24 -3 26 -11 14z"/>
<path d="M4016 998 c3 -5 10 -6 15 -3 13 9 11 12 -6 12 -8 0 -12 -4 -9 -9z"/>
<path d="M3995 951 c-3 -5 -2 -12 3 -15 5 -3 9 1 9 9 0 17 -3 19 -12 6z"/>
<path d="M1876 895 c-3 -9 -11 -13 -17 -9 -8 5 -9 3 -4 -5 6 -10 11 -9 23 3 9
8 13 18 10 21 -3 3 -8 -1 -12 -10z"/>
<path d="M3595 840 c3 -5 8 -10 11 -10 2 0 4 5 4 10 0 6 -5 10 -11 10 -5 0 -7
-4 -4 -10z"/>
<path d="M1635 820 c3 -5 8 -10 11 -10 2 0 4 5 4 10 0 6 -5 10 -11 10 -5 0 -7
-4 -4 -10z"/>
</g>
</svg>
